<svg width="32" height="32" viewBox="0 0 32 32" fill="none" xmlns="http://www.w3.org/2000/svg">
    <path d="M21.8667 2.93366C22.0648 2.78509 22.3003 2.69462 22.5469 2.67238C22.7935 2.65014 23.0415 2.69702 23.263 2.80776C23.4844 2.91849 23.6707 3.08872 23.8009 3.29935C23.931 3.50999 24 3.75271 24 4.00033V28.0003C24 28.2479 23.931 28.4907 23.8009 28.7013C23.6707 28.9119 23.4844 29.0822 23.263 29.1929C23.0415 29.3036 22.7935 29.3505 22.5469 29.3283C22.3003 29.306 22.0648 29.2156 21.8667 29.067L5.86667 17.067C5.70107 16.9428 5.56667 16.7818 5.4741 16.5966C5.38153 16.4115 5.33333 16.2073 5.33333 16.0003C5.33333 15.7933 5.38153 15.5892 5.4741 15.404C5.56667 15.2189 5.70107 15.0579 5.86667 14.9337L21.8667 2.93366Z" fill="#fff"/>
</svg>
