<svg width="21" height="21" viewBox="0 0 21 21" fill="none" xmlns="http://www.w3.org/2000/svg">
<g clip-path="url(#clip0_277_477)">
<path d="M21 3.98742C20.2274 4.33042 19.397 4.56142 18.5255 4.66554C19.4154 4.13267 20.0987 3.28829 20.4199 2.28204C19.5877 2.77554 18.6655 3.13429 17.6838 3.32767C16.8989 2.49029 15.778 1.96704 14.539 1.96704C11.7574 1.96704 9.71338 4.56229 10.3416 7.25642C6.762 7.07704 3.5875 5.36204 1.46213 2.75542C0.333375 4.69179 0.87675 7.22492 2.79475 8.50767C2.0895 8.48492 1.4245 8.29154 0.844375 7.96867C0.797125 9.96454 2.22775 11.8318 4.29975 12.2474C3.69338 12.4119 3.02925 12.4504 2.35375 12.3209C2.9015 14.0324 4.49225 15.2775 6.37875 15.3125C4.5675 16.7327 2.2855 17.367 0 17.0975C1.90662 18.3199 4.172 19.033 6.6045 19.033C14.6038 19.033 19.1231 12.2772 18.8501 6.21779C19.6919 5.60967 20.4225 4.85104 21 3.98742Z" fill="#7E7E7E"/>
</g>
<defs>
<clipPath id="clip0_277_477">
<rect width="21" height="21" fill="white"/>
</clipPath>
</defs>
</svg>
