<svg width="21" height="21" viewBox="0 0 21 21" fill="none" xmlns="http://www.w3.org/2000/svg">
<path d="M19.9593 3.28749C19.9433 3.21073 19.9079 3.13978 19.8568 3.08189C19.8058 3.02399 19.7409 2.98122 19.6687 2.95795C19.4061 2.90409 19.1344 2.92428 18.8818 3.01645C18.8818 3.01645 1.35867 9.56629 0.358041 10.2917C0.14179 10.4477 0.0699151 10.538 0.03429 10.6453C-0.138835 11.1613 0.399916 11.3888 0.399916 11.3888L4.91618 12.9195C4.99246 12.9333 5.07077 12.9284 5.14493 12.9052C6.17243 12.2306 15.4818 6.11685 16.02 5.91146C16.1043 5.88481 16.1668 5.91146 16.1531 5.97645C15.9331 6.76033 7.89368 14.1902 7.84931 14.2357C7.82774 14.2542 7.81078 14.2777 7.7999 14.3044C7.78901 14.3312 7.78452 14.3602 7.78681 14.3891L7.36681 18.9721C7.36681 18.9721 7.19056 20.4021 8.56306 18.9721C9.53619 17.9588 10.4699 17.1204 10.9381 16.7128C12.4912 17.8275 14.1625 19.0605 14.8831 19.7027C15.004 19.8249 15.1473 19.9204 15.3045 19.9836C15.4618 20.0468 15.6296 20.0764 15.7981 20.0706C16.4856 20.0433 16.6731 19.2614 16.6731 19.2614C16.6731 19.2614 19.8656 5.90106 19.9731 4.11036C19.9831 3.93487 19.9975 3.82242 19.9987 3.70218C20.0044 3.56271 19.9912 3.4231 19.9593 3.28749V3.28749Z" fill="#7E7E7E"/>
</svg>
