<svg width="20" height="21" viewBox="0 0 20 21" fill="none" xmlns="http://www.w3.org/2000/svg">
<g clip-path="url(#clip0_277_469)">
<path fill-rule="evenodd" clip-rule="evenodd" d="M7.429 7.469H11.143V9.319C11.678 8.255 13.05 7.299 15.111 7.299C19.062 7.299 20 9.417 20 13.303V20.5H16V14.188C16 11.975 15.465 10.727 14.103 10.727C12.214 10.727 11.429 12.072 11.429 14.187V20.5H7.429V7.469ZM0.57 20.33H4.57V7.299H0.57V20.33ZM5.143 3.05C5.14315 3.38528 5.07666 3.71724 4.94739 4.02659C4.81812 4.33594 4.62865 4.61651 4.39 4.852C3.9064 5.33262 3.25181 5.60165 2.57 5.6C1.88939 5.59954 1.23631 5.3312 0.752 4.853C0.514211 4.61671 0.325386 4.33582 0.196344 4.02643C0.0673015 3.71704 0.000579132 3.38522 0 3.05C0 2.373 0.27 1.725 0.753 1.247C1.23689 0.768158 1.89024 0.499701 2.571 0.5C3.253 0.5 3.907 0.769 4.39 1.247C4.872 1.725 5.143 2.373 5.143 3.05Z" fill="#7E7E7E"/>
</g>
<defs>
<clipPath id="clip0_277_469">
<rect width="20" height="20" fill="white" transform="translate(0 0.5)"/>
</clipPath>
</defs>
</svg>
