<svg width="20" height="21" viewBox="0 0 20 21" fill="none" xmlns="http://www.w3.org/2000/svg">
<g clip-path="url(#clip0_277_474)">
<path d="M7.70449 10.5C7.42943 10.5003 7.16573 10.6097 6.97123 10.8042C6.77674 10.9987 6.66732 11.2624 6.66699 11.5375C6.66699 12.1113 7.13199 12.5875 7.70449 12.5763C7.97359 12.5669 8.22854 12.4534 8.4156 12.2598C8.60266 12.0661 8.70721 11.8074 8.70721 11.5381C8.70721 11.2689 8.60266 11.0101 8.4156 10.8165C8.22854 10.6228 7.97359 10.5093 7.70449 10.5ZM10.0082 15.0588C10.402 15.0588 11.762 15.0113 12.4782 14.295C12.5247 14.2421 12.5502 14.1741 12.5502 14.1038C12.5502 14.0334 12.5247 13.9654 12.4782 13.9125C12.4534 13.8869 12.4237 13.8665 12.3908 13.8526C12.358 13.8387 12.3227 13.8315 12.287 13.8315C12.2513 13.8315 12.216 13.8387 12.1831 13.8526C12.1503 13.8665 12.1206 13.8869 12.0957 13.9125C11.6545 14.3662 10.6882 14.5213 10.0082 14.5213C9.32699 14.5213 8.37324 14.3662 7.91949 13.9125C7.89467 13.8869 7.86495 13.8665 7.83209 13.8526C7.79924 13.8387 7.76392 13.8315 7.72824 13.8315C7.69256 13.8315 7.65725 13.8387 7.62439 13.8526C7.59154 13.8665 7.56182 13.8869 7.53699 13.9125C7.51136 13.9373 7.49098 13.967 7.47707 13.9999C7.46315 14.0328 7.45598 14.0681 7.45598 14.1038C7.45598 14.1394 7.46315 14.1747 7.47707 14.2076C7.49098 14.2405 7.51136 14.2702 7.53699 14.295C8.24199 14.9988 9.60199 15.0575 10.0082 15.0575V15.0588ZM11.2482 11.55C11.2482 12.1225 11.7145 12.5875 12.287 12.5875C12.8595 12.5875 13.3245 12.1113 13.3245 11.55C13.3114 11.2836 13.1964 11.0325 13.0033 10.8486C12.8101 10.6648 12.5537 10.5622 12.287 10.5622C12.0203 10.5622 11.7639 10.6648 11.5707 10.8486C11.3776 11.0325 11.2626 11.2836 11.2495 11.55H11.2482Z" fill="#7E7E7E"/>
<path d="M20 10.5C20 13.1522 18.9464 15.6957 17.0711 17.5711C15.1957 19.4464 12.6522 20.5 10 20.5C7.34784 20.5 4.8043 19.4464 2.92893 17.5711C1.05357 15.6957 0 13.1522 0 10.5C0 7.84784 1.05357 5.3043 2.92893 3.42893C4.8043 1.55357 7.34784 0.5 10 0.5C12.6522 0.5 15.1957 1.55357 17.0711 3.42893C18.9464 5.3043 20 7.84784 20 10.5ZM15.215 9.04375C14.8212 9.04375 14.4625 9.19875 14.2 9.45C13.1987 8.73375 11.825 8.26875 10.2987 8.20875L10.9662 5.0825L13.1388 5.5475C13.1483 5.75035 13.2172 5.94594 13.3368 6.11002C13.4564 6.27411 13.6216 6.39947 13.8118 6.47057C14.0021 6.54168 14.209 6.55539 14.4069 6.51003C14.6048 6.46466 14.7851 6.3622 14.9254 6.21534C15.0656 6.06849 15.1597 5.88371 15.196 5.68389C15.2322 5.48408 15.209 5.27802 15.1292 5.09127C15.0495 4.90451 14.9167 4.74527 14.7473 4.63328C14.5779 4.52129 14.3793 4.46147 14.1762 4.46125C13.982 4.46193 13.7919 4.51712 13.6275 4.62054C13.463 4.72396 13.331 4.87146 13.2463 5.04625L10.8238 4.53375C10.7911 4.52673 10.7575 4.5262 10.7246 4.53221C10.6918 4.53821 10.6605 4.55063 10.6325 4.56875C10.6033 4.58697 10.5785 4.61145 10.5599 4.64042C10.5413 4.66938 10.5294 4.70211 10.525 4.73625L9.785 8.22125C8.235 8.26875 6.8375 8.73375 5.8225 9.46125C5.56 9.21125 5.2025 9.05625 4.81 9.05625C4.47713 9.05576 4.15418 9.16951 3.8951 9.37851C3.63602 9.58751 3.45651 9.87909 3.38656 10.2045C3.31662 10.53 3.36047 10.8695 3.5108 11.1665C3.66113 11.4635 3.90882 11.6999 4.2125 11.8363C4.1875 11.98 4.17625 12.1237 4.17625 12.2775C4.17625 14.5212 6.79 16.3475 10.0125 16.3475C13.2338 16.3475 15.8475 14.5337 15.8475 12.2775C15.8475 12.135 15.835 11.98 15.8113 11.8363C16.3125 11.61 16.6712 11.0962 16.6712 10.5C16.6712 9.6875 16.015 9.04375 15.215 9.04375Z" fill="#7E7E7E"/>
</g>
<defs>
<clipPath id="clip0_277_474">
<rect width="20" height="20" fill="white" transform="translate(0 0.5)"/>
</clipPath>
</defs>
</svg>
