<svg width="20" height="21" viewBox="0 0 20 21" fill="none" xmlns="http://www.w3.org/2000/svg">
<g clip-path="url(#clip0_277_471)">
<path d="M19.9356 6.40309C19.9244 5.56334 19.7669 4.73193 19.4702 3.94606C19.213 3.28318 18.82 2.68117 18.3165 2.17849C17.813 1.67581 17.21 1.28351 16.546 1.02667C15.7689 0.735455 14.948 0.577992 14.1182 0.560982C13.0498 0.513305 12.711 0.5 9.99889 0.5C7.28676 0.5 6.93914 0.5 5.8785 0.560982C5.04904 0.578117 4.22851 0.735578 3.4518 1.02667C2.78771 1.28333 2.18461 1.67557 1.68107 2.17827C1.17753 2.68097 0.784639 3.28308 0.527543 3.94606C0.235263 4.72124 0.07788 5.54059 0.0621946 6.36872C0.014438 7.43647 0 7.77464 0 10.4823C0 13.1899 -8.27475e-09 13.5358 0.0621946 14.5958C0.0788538 15.4252 0.235451 16.2434 0.527543 17.0207C0.785071 17.6835 1.17825 18.2853 1.68196 18.7878C2.18567 19.2903 2.78883 19.6824 3.45291 19.939C4.22749 20.2419 5.04817 20.4106 5.87961 20.4379C6.94913 20.4856 7.28787 20.5 10 20.5C12.7121 20.5 13.0598 20.5 14.1204 20.4379C14.9502 20.4216 15.7712 20.2645 16.5482 19.9733C17.212 19.7162 17.8149 19.3238 18.3183 18.8211C18.8218 18.3185 19.2149 17.7166 19.4725 17.0539C19.7646 16.2778 19.9211 15.4595 19.9378 14.6291C19.9856 13.5624 20 13.2242 20 10.5155C19.9978 7.80791 19.9978 7.46419 19.9356 6.40309ZM9.99223 15.6026C7.15571 15.6026 4.85784 13.3085 4.85784 10.4767C4.85784 7.64492 7.15571 5.35087 9.99223 5.35087C11.354 5.35087 12.6599 5.89091 13.6228 6.8522C14.5857 7.81348 15.1266 9.11726 15.1266 10.4767C15.1266 11.8362 14.5857 13.14 13.6228 14.1012C12.6599 15.0625 11.354 15.6026 9.99223 15.6026ZM15.331 6.35653C15.1737 6.35667 15.0179 6.32586 14.8726 6.26584C14.7273 6.20582 14.5953 6.11779 14.4841 6.00677C14.3729 5.89575 14.2847 5.76393 14.2246 5.61885C14.1644 5.47377 14.1336 5.31828 14.1337 5.16127C14.1337 5.00438 14.1647 4.84903 14.2248 4.70408C14.285 4.55913 14.3731 4.42743 14.4842 4.31649C14.5953 4.20555 14.7273 4.11755 14.8725 4.05751C15.0176 3.99747 15.1733 3.96657 15.3304 3.96657C15.4876 3.96657 15.6432 3.99747 15.7884 4.05751C15.9336 4.11755 16.0655 4.20555 16.1766 4.31649C16.2877 4.42743 16.3759 4.55913 16.436 4.70408C16.4961 4.84903 16.5271 5.00438 16.5271 5.16127C16.5271 5.8221 15.9918 6.35653 15.331 6.35653Z" fill="#7E7E7E"/>
<path d="M9.99469 12.985C11.3768 12.985 12.4972 11.8646 12.4972 10.4825C12.4972 9.10039 11.3768 7.97998 9.99469 7.97998C8.6126 7.97998 7.49219 9.10039 7.49219 10.4825C7.49219 11.8646 8.6126 12.985 9.99469 12.985Z" fill="#7E7E7E"/>
</g>
<defs>
<clipPath id="clip0_277_471">
<rect width="20" height="20" fill="white" transform="translate(0 0.5)"/>
</clipPath>
</defs>
</svg>
