<svg width="20" height="20" viewBox="0 0 20 20" fill="none" xmlns="http://www.w3.org/2000/svg">
<path d="M7.7417 18.5084C6.0197 20.2304 3.2157 20.2304 1.4917 18.5064C-0.230305 16.7844 -0.230305 13.9804 1.4917 12.2584L5.9177 7.83242C7.6397 6.11042 10.4437 6.11042 12.1677 7.83442C12.2137 7.88042 12.2597 7.92842 12.3037 7.97642C12.3297 7.99842 12.3537 8.02042 12.3797 8.04442C12.4497 8.11442 12.5077 8.19042 12.5537 8.27242C12.5597 8.28042 12.5657 8.28642 12.5717 8.29442C12.5697 8.29642 12.5697 8.29642 12.5677 8.29642C12.7797 8.69642 12.7177 9.20442 12.3797 9.54042C12.0397 9.88042 11.5277 9.94042 11.1277 9.72242C11.0997 9.75242 10.8217 9.47642 10.6757 9.32842L10.6737 9.32642C9.7737 8.42642 8.3217 8.42042 7.4217 9.31842L2.9877 13.7544C2.0877 14.6544 2.0877 16.1124 2.9877 17.0124L2.9897 17.0144C3.8897 17.9144 5.3477 17.9144 6.2477 17.0144L8.9177 14.3444C9.8437 14.7984 10.9337 14.8144 11.8677 14.3844L7.7417 18.5084ZM18.5077 7.74242L14.0817 12.1684C12.3597 13.8904 9.5557 13.8904 7.8317 12.1664C7.7857 12.1204 7.7397 12.0724 7.6957 12.0244C7.6697 12.0024 7.6457 11.9804 7.6217 11.9564C7.5517 11.8864 7.4937 11.8104 7.4477 11.7284C7.4417 11.7204 7.4357 11.7144 7.4317 11.7064C7.4317 11.7064 7.4337 11.7044 7.4357 11.7044C7.2237 11.3044 7.2857 10.7964 7.6237 10.4604C7.9637 10.1204 8.4757 10.0604 8.8757 10.2784C8.9037 10.2484 9.1817 10.5264 9.3277 10.6724L9.3297 10.6744C10.2297 11.5744 11.6817 11.5824 12.5797 10.6824L17.0137 6.24842C17.9137 5.34842 17.9137 3.89042 17.0137 2.99042V2.98842C16.1137 2.08842 14.6557 2.08842 13.7557 2.98842L11.0837 5.65642C10.1597 5.20442 9.0677 5.18642 8.1337 5.61642L12.2577 1.49242C13.9797 -0.229578 16.7837 -0.229578 18.5077 1.49442C20.2297 3.21642 20.2297 6.02042 18.5077 7.74242Z" fill="#7E7E7E"/>
</svg>
