<svg width="62" height="40" viewBox="0 0 62 40" fill="none" xmlns="http://www.w3.org/2000/svg">
<g clip-path="url(#clip0_202_598)">
<path d="M61.3748 14.2514C57.1268 19.2208 53.2604 22.7669 49.8766 24.7983C46.3551 26.9119 43.2163 27.4744 40.5507 26.4681C38.6093 25.7377 37.1046 24.2124 36.0767 21.9367C35.3491 20.3198 34.8511 18.2837 34.5862 15.8625C33.762 17.4688 32.7248 19.5413 31.4509 22.1234C30.31 24.5987 29.5553 26.1369 29.1421 26.8274C27.2465 30.4522 25.0896 31.974 22.7337 31.3505C19.6078 30.5861 18.1219 26.616 18.1938 19.2172C18.1938 18.562 18.2016 17.85 18.2173 17.0813C14.332 22.8256 10.329 29.6197 6.28825 37.3167C5.35696 39.0969 4.26436 39.9999 3.03873 39.9999C2.58096 39.9994 2.13099 39.8817 1.73185 39.6582C1.45194 39.5084 1.1846 39.3364 0.932421 39.1438C0.62042 38.8926 0.397899 38.4522 0.178909 37.6678C-0.0118241 36.9797 -0.0565661 36.119 0.0552835 35.1069C0.157714 34.1593 0.370817 32.8112 0.709898 30.9865C1.04427 29.1935 1.55054 27.0082 2.21339 24.4872C4.33265 16.0456 6.91579 8.37208 9.89923 1.68839C10.0941 1.1875 10.4386 0.758441 10.8862 0.459329C11.3337 0.160218 11.8625 0.00550295 12.4011 0.0161388C12.9398 0.0267746 13.4621 0.202248 13.8974 0.518791C14.3327 0.835335 14.6599 1.27765 14.8347 1.78585C15.0606 2.42869 15.0345 3.13289 14.7617 3.75737C12.108 9.74592 9.81681 16.3333 7.92479 23.4139C11.0825 18.1299 14.3391 13.1535 17.6392 8.5764C19.0521 6.56377 20.5567 6.56142 21.5728 6.91721C22.6324 7.26948 23.2847 8.04095 23.4566 9.14237C23.5967 10.0207 23.632 11.6717 23.5649 14.1915C23.499 16.2089 23.466 17.9021 23.466 19.2266C23.466 21.7653 23.6591 23.7462 24.0417 25.1424C24.1987 24.902 24.3643 24.63 24.5386 24.3263C24.8576 23.6899 25.5488 22.2796 26.712 19.8912C29.467 14.1281 31.405 10.4469 32.6318 8.6445C34.0058 6.62718 35.5045 5.77117 37.0834 6.10113H37.1046C38.8706 6.5215 39.769 8.2347 39.769 11.1914C39.6901 18.7769 41.1818 20.9821 42.4604 21.4941C43.2163 21.75 44.7669 21.6467 47.8657 19.7257C50.5018 18.09 53.6878 15.0887 57.3329 10.8016C57.5559 10.5329 57.8327 10.3135 58.1455 10.1574C58.4582 10.0013 58.8002 9.91199 59.1495 9.89505C59.8455 9.841 60.5347 10.0629 61.0675 10.5127C61.3395 10.7341 61.5616 11.0102 61.7195 11.323C61.8773 11.6358 61.9673 11.9783 61.9835 12.328C62.0423 13.0241 61.8236 13.7152 61.3748 14.2514Z" fill="url(#paint0_linear_202_598)"/>
</g>
<defs>
<linearGradient id="paint0_linear_202_598" x1="-5.19734e-05" y1="19.9993" x2="61.9999" y2="19.9993" gradientUnits="userSpaceOnUse">
<stop offset="0.06" stop-color="#32D6D0"/>
<stop offset="0.2" stop-color="#328DFF"/>
<stop offset="0.36" stop-color="#3281FF"/>
<stop offset="0.73" stop-color="#1964FF"/>
</linearGradient>
<clipPath id="clip0_202_598">
<rect width="62" height="40" fill="white"/>
</clipPath>
</defs>
</svg>
