<svg width="338" height="40" viewBox="0 0 338 40" fill="none" xmlns="http://www.w3.org/2000/svg">
<rect x="85.0029" y="1" width="38" height="38" stroke="#222021" stroke-opacity="0.4" stroke-width="2"/>
<rect x="42.9971" y="1" width="38" height="38" stroke="#222021" stroke-opacity="0.4" stroke-width="2"/>
<path d="M74.3866 8.51455L58.7706 32.6485L49.2906 20.5814" stroke="#222021" stroke-opacity="0.4" stroke-width="2" stroke-linejoin="bevel"/>
<rect x="1" y="1" width="38" height="38" stroke="#222021" stroke-width="2"/>
<path d="M32.3896 8.51455L16.7735 32.6485L7.29358 20.5814" stroke="#222021" stroke-width="2" stroke-linejoin="bevel"/>
<rect x="127" y="1" width="38" height="38" stroke="#222021" stroke-width="2"/>
<rect x="168.996" y="1" width="37.9998" height="38" stroke="#222021" stroke-width="2"/>
<path d="M233.002 20C233.002 26.0751 228.077 31 222.002 31C215.927 31 211.002 26.0751 211.002 20C211.002 13.9249 215.927 9 222.002 9C228.077 9 233.002 13.9249 233.002 20Z" stroke="#222021" stroke-width="2"/>
<circle cx="222.002" cy="20" r="5" fill="#222021"/>
<path d="M233.002 20C233.002 26.0751 228.077 31 222.002 31C215.927 31 211.002 26.0751 211.002 20C211.002 13.9249 215.927 9 222.002 9C228.077 9 233.002 13.9249 233.002 20Z" stroke="#222021" stroke-width="2"/>
<circle cx="222.002" cy="20" r="5" fill="#222021"/>
<circle cx="299.998" cy="20" r="11" stroke="#222021" stroke-width="2"/>
<circle cx="325.996" cy="20" r="11" stroke="#222021" stroke-width="2"/>
<circle cx="248.001" cy="20" r="11" stroke="#222021" stroke-opacity="0.4" stroke-width="2"/>
<circle cx="248.001" cy="20" r="5" fill="#222021" fill-opacity="0.4"/>
<circle cx="273.999" cy="20" r="11" stroke="#222021" stroke-opacity="0.4" stroke-width="2"/>
</svg>
