<svg width="281" height="30" viewBox="0 0 281 30" fill="none" xmlns="http://www.w3.org/2000/svg">
<path d="M92.0117 1H64.0117V29H92.0117V1Z" stroke="#AEADAD" stroke-opacity="0.4" stroke-width="2"/>
<path d="M60.9883 1H32.9883V29H60.9883V1Z" stroke="white" stroke-opacity="0.4" stroke-width="2"/>
<path d="M56.1012 6.53711L44.5946 24.32L37.6094 15.4285" stroke="white" stroke-opacity="0.4" stroke-width="2" stroke-linejoin="bevel"/>
<path d="M29.9922 1H1.99219V29H29.9922V1Z" stroke="white" stroke-width="2"/>
<path d="M25.1051 6.53711L13.5985 24.32L6.61328 15.4285" stroke="white" stroke-width="2" stroke-linejoin="bevel"/>
<path d="M123.004 1H95.0039V29H123.004V1Z" stroke="#AEADAD" stroke-width="2"/>
<path d="M154 1H126V29.0001H154V1Z" stroke="white" stroke-width="2"/>
<path d="M178.996 15C178.996 21.0751 174.071 26 167.996 26C161.921 26 156.996 21.0751 156.996 15C156.996 8.9249 161.921 4 167.996 4C174.071 4 178.996 8.9249 178.996 15Z" stroke="white" stroke-width="2"/>
<path d="M168.004 20C170.765 20 173.004 17.7614 173.004 15C173.004 12.2386 170.765 10 168.004 10C165.242 10 163.004 12.2386 163.004 15C163.004 17.7614 165.242 20 168.004 20Z" fill="white"/>
<path d="M243 26C249.075 26 254 21.0751 254 15C254 8.92487 249.075 4 243 4C236.925 4 232 8.92487 232 15C232 21.0751 236.925 26 243 26Z" stroke="#AEADAD" stroke-width="2"/>
<path d="M268 26C274.075 26 279 21.0751 279 15C279 8.92487 274.075 4 268 4C261.925 4 257 8.92487 257 15C257 21.0751 261.925 26 268 26Z" stroke="white" stroke-width="2"/>
<path d="M193.012 26C199.087 26 204.012 21.0751 204.012 15C204.012 8.92487 199.087 4 193.012 4C186.937 4 182.012 8.92487 182.012 15C182.012 21.0751 186.937 26 193.012 26Z" stroke="white" stroke-opacity="0.4" stroke-width="2"/>
<path d="M193.019 20C195.781 20 198.019 17.7614 198.019 15C198.019 12.2386 195.781 10 193.019 10C190.258 10 188.02 12.2386 188.02 15C188.02 17.7614 190.258 20 193.019 20Z" fill="white" fill-opacity="0.4"/>
<path d="M218 26C224.075 26 229 21.0751 229 15C229 8.92487 224.075 4 218 4C211.925 4 207 8.92487 207 15C207 21.0751 211.925 26 218 26Z" stroke="#AEADAD" stroke-opacity="0.4" stroke-width="2"/>
</svg>
