<svg width="128" height="24" viewBox="0 0 128 24" fill="none" xmlns="http://www.w3.org/2000/svg">
<path d="M23.0021 12C23.0021 18.0751 18.0772 23 12.002 23C5.92685 23 1.00195 18.0751 1.00195 12C1.00195 5.92487 5.92685 1 12.002 1C18.0772 1 23.0021 5.92487 23.0021 12Z" stroke="#222021" stroke-width="2"/>
<circle cx="12.002" cy="12" r="5" fill="#222021"/>
<circle cx="89.998" cy="12" r="11" stroke="#222021" stroke-width="2"/>
<circle cx="115.996" cy="12" r="11" stroke="#222021" stroke-width="2"/>
<circle cx="38.001" cy="12" r="11" stroke="#222021" stroke-opacity="0.4" stroke-width="2"/>
<circle cx="38.001" cy="12" r="5" fill="#222021" fill-opacity="0.4"/>
<circle cx="63.999" cy="12" r="11" stroke="#222021" stroke-opacity="0.4" stroke-width="2"/>
<path d="M23.0021 12C23.0021 18.0751 18.0772 23 12.002 23C5.92685 23 1.00195 18.0751 1.00195 12C1.00195 5.92487 5.92685 1 12.002 1C18.0772 1 23.0021 5.92487 23.0021 12Z" stroke="#222021" stroke-width="2"/>
<circle cx="12.002" cy="12" r="5" fill="#222021"/>
</svg>
