<svg width="249" height="24" viewBox="0 0 249 24" fill="none" xmlns="http://www.w3.org/2000/svg">
<path d="M0.5 0.5H23.5V23.5H0.5V0.5Z" fill="white" stroke="#8C5DDB"/>
<path d="M137 0.5C143.351 0.5 148.5 5.64873 148.5 12C148.5 18.3513 143.351 23.5 137 23.5C130.649 23.5 125.5 18.3513 125.5 12C125.5 5.64873 130.649 0.5 137 0.5Z" fill="white" stroke="#8C5DDB"/>
<path d="M144 12C144 8.13401 140.866 5 137 5C133.134 5 130 8.13401 130 12C130 15.866 133.134 19 137 19C140.866 19 144 15.866 144 12Z" fill="#8C5DDB"/>
<path d="M74 0H50V24H74V0Z" fill="white"/>
<path d="M50.5 0.5H73.5V23.5H50.5V0.5Z" stroke="#73757D" stroke-opacity="0.5"/>
<path d="M199 12C199 5.37258 193.627 0 187 0C180.373 0 175 5.37258 175 12C175 18.6274 180.373 24 187 24C193.627 24 199 18.6274 199 12Z" fill="white"/>
<path d="M187 0.5C193.351 0.5 198.5 5.64873 198.5 12C198.5 18.3513 193.351 23.5 187 23.5C180.649 23.5 175.5 18.3513 175.5 12C175.5 5.64873 180.649 0.5 187 0.5Z" stroke="#73757D" stroke-opacity="0.5"/>
<path d="M75.5 0.5H98.5V23.5H75.5V0.5Z" fill="white" stroke="#73757D"/>
<path d="M100.5 0.5H123.5V23.5H100.5V0.5Z" fill="white" stroke="#8C5DDB"/>
<path d="M212 0.5C218.351 0.5 223.5 5.64873 223.5 12C223.5 18.3513 218.351 23.5 212 23.5C205.649 23.5 200.5 18.3513 200.5 12C200.5 5.64873 205.649 0.5 212 0.5Z" fill="white" stroke="#73757D"/>
<path d="M237 0.5C243.351 0.5 248.5 5.64873 248.5 12C248.5 18.3513 243.351 23.5 237 23.5C230.649 23.5 225.5 18.3513 225.5 12C225.5 5.64873 230.649 0.5 237 0.5Z" fill="white" stroke="#8C5DDB"/>
<path d="M49 0H25V24H49V0Z" fill="white"/>
<path d="M25.5 0.5H48.5V23.5H25.5V0.5Z" stroke="#8C5DDB" stroke-opacity="0.5"/>
<path d="M174 12C174 5.37258 168.627 0 162 0C155.373 0 150 5.37258 150 12C150 18.6274 155.373 24 162 24C168.627 24 174 18.6274 174 12Z" fill="white"/>
<path d="M162 0.5C168.351 0.5 173.5 5.64873 173.5 12C173.5 18.3513 168.351 23.5 162 23.5C155.649 23.5 150.5 18.3513 150.5 12C150.5 5.64873 155.649 0.5 162 0.5Z" stroke="#8C5DDB" stroke-opacity="0.5"/>
<path d="M169 12C169 8.13401 165.866 5 162 5C158.134 5 155 8.13401 155 12C155 15.866 158.134 19 162 19C165.866 19 169 15.866 169 12Z" fill="#8C5DDB" fill-opacity="0.5"/>
<path d="M6 12.7368L9.85714 17L18 8" stroke="#8C5DDB" stroke-width="3" stroke-miterlimit="10" stroke-linecap="square"/>
<path d="M31 12.7368L34.8571 17L43 8" stroke="#8C5DDB" stroke-opacity="0.5" stroke-width="3" stroke-miterlimit="10" stroke-linecap="square"/>
</svg>
