<svg width="24" height="24" viewBox="0 0 24 24" fill="none" xmlns="http://www.w3.org/2000/svg">
<g clip-path="url(#clip0)">
<path d="M10.5674 17.6752L17.4004 22.8002C17.5764 22.9332 17.7884 23.0002 18.0004 23.0002C18.1524 23.0002 18.3064 22.9652 18.4474 22.8952C18.7864 22.7252 19.0004 22.3792 19.0004 22.0002V9.24219L10.5674 17.6752Z" fill="white"/>
<path d="M2 17.0002H7L19 5.00024V2.00024C19 1.62124 18.786 1.27524 18.447 1.10524C18.109 0.938242 17.703 0.973242 17.4 1.20024L9.667 7.00024H2C1.447 7.00024 1 7.44724 1 8.00024V16.0002C1 16.5532 1.447 17.0002 2 17.0002Z" fill="white"/>
<path d="M1.00025 24.0002C0.74425 24.0002 0.48825 23.9023 0.29325 23.7073C-0.09775 23.3162 -0.09775 22.6842 0.29325 22.2932L22.2932 0.29325C22.6842 -0.09775 23.3162 -0.09775 23.7073 0.29325C24.0983 0.68425 24.0983 1.31625 23.7073 1.70725L1.70725 23.7073C1.51225 23.9023 1.25625 24.0002 1.00025 24.0002Z" fill="white"/>
</g>
<defs>
<clipPath id="clip0">
<rect width="24" height="24" fill="white"/>
</clipPath>
</defs>
</svg>
