<svg width="24" height="24" viewBox="0 0 24 24" fill="none" xmlns="http://www.w3.org/2000/svg">
<path d="M14.447 1.10524C14.109 0.938242 13.703 0.973242 13.4 1.20024L5.667 7.00024H1C0.447 7.00024 0 7.44724 0 8.00024V16.0002C0 16.5532 0.447 17.0002 1 17.0002H5.667L13.4 22.8002C13.576 22.9332 13.788 23.0002 14 23.0002C14.152 23.0002 14.306 22.9652 14.447 22.8952C14.786 22.7252 15 22.3792 15 22.0002V2.00024C15 1.62124 14.786 1.27524 14.447 1.10524Z" fill="white"/>
<path d="M18.2431 7.75778L17.5361 7.05078L16.1221 8.46478L16.8291 9.17178C18.3891 10.7318 18.3891 13.2688 16.8291 14.8278L16.1221 15.5348L17.5361 16.9488L18.2431 16.2418C20.5821 13.9028 20.5821 10.0968 18.2431 7.75778Z" fill="white"/>
<path d="M20.3642 4.22266L18.9502 5.63666L19.6572 6.34366C22.7762 9.46266 22.7762 14.5387 19.6572 17.6577L18.9502 18.3647L20.3642 19.7787L21.0712 19.0717C24.9702 15.1727 24.9702 8.82866 21.0712 4.92866L20.3642 4.22266Z" fill="white"/>
</svg>
